<?xml version="1.0" encoding="utf-8"?>
<!-- Generator: Adobe Illustrator 16.0.0, SVG Export Plug-In . SVG Version: 6.00 Build 0)  -->
<!DOCTYPE svg PUBLIC "-//W3C//DTD SVG 1.1//EN" "http://www.w3.org/Graphics/SVG/1.1/DTD/svg11.dtd">
<svg version="1.1" id="Calque_1" xmlns="http://www.w3.org/2000/svg" xmlns:xlink="http://www.w3.org/1999/xlink" x="0px" y="0px"
	 width="141.73px" height="141.73px" viewBox="0 0 141.73 141.73" enable-background="new 0 0 141.73 141.73" xml:space="preserve">
<path fill="#FFFFFF" d="M137.893,70.816c0,36.946-29.949,66.897-66.894,66.897c-36.944,0-66.895-29.951-66.895-66.897
	c0-36.943,29.95-66.895,66.895-66.895C107.943,3.921,137.893,33.873,137.893,70.816z"/>
<g>
	<path fill="#008DAA" d="M70.999,3.921c-22.858,0-43.034,11.468-55.1,28.96h45.6v3.673H37.143v65.336H32.89V36.555H13.537
		C7.548,46.576,4.104,58.293,4.104,70.816c0,36.946,29.95,66.897,66.895,66.897c36.945,0,66.894-29.951,66.894-66.897
		C137.893,33.873,107.943,3.921,70.999,3.921z M99.869,101.891L82.761,75.795l-7.732,7.152v18.943h-8.215V32.882h8.215v40.884
		l22.81-21.843h11.019l-19.812,18.17l21.263,31.798H99.869z"/>
</g>
</svg>
